<?xml version="1.0" encoding="UTF-8"?>
<!-- Wizard hat accessory. Brim rests at viewBox bottom (bottom-anchored). -->
<svg xmlns="http://www.w3.org/2000/svg" viewBox="0 0 170 200" width="170" height="200">
  <!-- Brim -->
  <ellipse cx="85" cy="180" rx="80" ry="16" fill="#3a2d6b" stroke="#211a40" stroke-width="4"/>
  <!-- Cone (slight bend at tip) -->
  <path d="M44,182 Q40,90 70,40 Q90,8 120,30 Q96,70 96,120 Q96,160 126,182 Z"
        fill="#4b3da0" stroke="#211a40" stroke-width="4" stroke-linejoin="round"/>
  <!-- Stars -->
  <g fill="#ffd84d">
    <polygon points="80,70 84,80 95,80 86,87 89,98 80,91 71,98 74,87 65,80 76,80"/>
    <polygon points="98,120 101,127 109,127 102,132 105,140 98,135 91,140 94,132 87,127 95,127"/>
  </g>
</svg>
